@startuml

hide circle
skinparam classAttributeIconSize 0
skinparam class {
    BackgroundColor White
    BorderColor Black
    FontColor Black
}

class QuizManager {
    - static Logger logger

    + QuizManager()
    + selectQuizToAttempt(topicName: String): void
    + addResultsAndPrintScore(): void
    + printQuizzesAvailable(): void
    + printPastResults(): void
    + addInput(input: String): void
    + saveResults(): void
    + getQuizSession(): QuizSession
    + getQuizResults(): QuizResults
    + getTopicManager(): TopicManager
}

class QuizGenerator {
    + QuizGenerator(topicManager: TopicManager, cli: Cli)
    + selectTimedQuiz(topicName: String): boolean
    + selectUntimedQuiz(topicName: String): boolean
    + selectRandomTopicsQuiz(isTimed: boolean): boolean
    - generateRandomQuiz(numTopics: int, numQuestions: int): Topic
    + ... ()
}

class QuizResults {
    + generateComment(score: int): String
    + addResult(score: int, comment: String): void
    + loadResults(): void
    + saveResults(): void
    + getPastResults(): String
}

class TopicManager {
    + getTopic(topicName: String): Topic
    + loadQuestions(): void
    + printTopics(): void
    + addFlashcardByUser(input: String): void
}

QuizManager *--> "1" QuizGenerator
QuizManager *--> "1" QuizResults
QuizManager *--> "1" TopicManager

@enduml
