@startuml

skinparam linetype ortho
hide circle
skinparam classAttributeIconSize 0
skinparam classBackgroundColor White
skinparam classBorderColor Black

class TrainingSession {
    - exerciseStations: EnumMap<Exercise, ExerciseStation>
}

class ExerciseStation {
    # points: int = 0
}

class PullUpStation {
    - reps: int = 1
    # points: int = 0
}

class ShuttleRunStation {
    - time: int = 160
    # points: int = 0
}

class SitAndReachStation {
    - reps: int = 0
    # points: int = 0
}

class SitUpStation {
    - reps: int = 0
    # points: int = 0
}

class StandingBroadJumpStation {
    - reps: int = 0
    # points: int = 0
}

class WalkAndRunStation {
    - time: int = -1
    # points: int = 0
}

enum Exercise <<enumeration>> {
    PULL_UP ("PU")
    SHUTTLE_RUN ("SR")
    SIT_AND_REACH ("SAR")
    SIT_UP ("SU")
    STANDING_BROAD_JUMP ("SBJ")
    WALK_AND_RUN ("WAR")
}

' Representing exerciseStations as containing both key and value connections
TrainingSession --> Exercise : key
TrainingSession  --> ExerciseStation : value

' Subclasses of ExerciseStation
ExerciseStation <|-- PullUpStation
ExerciseStation <|-- ShuttleRunStation
ExerciseStation <|-- SitAndReachStation
ExerciseStation <|-- SitUpStation
ExerciseStation <|-- StandingBroadJumpStation
ExerciseStation <|-- WalkAndRunStation

@enduml
