@startuml
hide stereotype
hide circle

skinparam classAttributeIconSize 0
skinparam class {
    BackgroundColor White
    BorderColor Black
    FontColor Black
}

class Cli {
    + readInput(): String
    + printMessage(String message): void
    + printOptions(List<String> options): void
    + printGoodByeMessage(): void
}

class QuizGenerator {
    - static Logger logger
    - int questionLimit
    - Cli cli
    - int timeLimitInSeconds

    + QuizSession(cli: Cli)
    + startQuiz(topic: Topic): void
    + getQuizScore(): int
    + getTimeLimitInSecondsFromUser(): int
    + getQuestionLimitFromUser(): int
    + getQuestionLimit(): int
    + getTimeLimitInSeconds(): int
    + getTopicName(): String
    + getCurrentQuiz(topic: Topic, cli: Cli): Quiz
}

class Quiz {
    + Quiz(topic: Topic, cli: Cli)
    + start(timeLimitInSeconds: int, questionLimit: int): void
    + getScore(): int
}

class Topic {
    + getName(): String
    + getQuestions(): List<Question>
}

QuizGenerator *--> "1" Quiz : manages
QuizGenerator --> "1" Cli : uses
QuizGenerator o--> "1" Topic : accesses

@enduml
